<svg id="Livello_1" data-name="Livello 1" xmlns="http://www.w3.org/2000/svg" viewBox="0 0 1467.29 291.38"><defs><style>.cls-1{font-size:244.81px;font-family:OldLondonAlternate, Old London Alternate;}.cls-2{fill:none;stroke:#000;stroke-miterlimit:10;stroke-width:3px;}</style></defs><title>Daily quotes_logo</title><text class="cls-1" transform="translate(141.27 228.23)">Daily Quotes</text><path d="M285.22,441.77c-1-1.17-2.16-2.45-3.54-3.82l-4.41-4.42-13.55-13q11.19-28,38.58-45.93l5.3,5.89Q294.34,392,294.35,399.67q0,7.36,13.25,20.9Z" transform="translate(-263.72 -339.88)"/><path d="M335.35,441.77c-1-1.17-2.16-2.45-3.53-3.82l-4.42-4.42-13.54-13q11.17-28,38.57-45.93l5.3,5.89Q344.48,392,344.48,399.67q0,7.36,13.25,20.9Z" transform="translate(-263.72 -339.88)"/><path d="M1709.52,534.54c1,1.18,2.16,2.45,3.53,3.83l4.42,4.41,13.55,13q-11.19,28-38.58,45.93l-5.3-5.89q13.26-11.47,13.25-19.14,0-7.35-13.25-20.9Z" transform="translate(-263.72 -339.88)"/><path d="M1659.39,534.54c1,1.18,2.16,2.45,3.53,3.83l4.42,4.41,13.54,13q-11.19,28-38.57,45.93l-5.3-5.89q13.24-11.47,13.25-19.14,0-7.35-13.25-20.9Z" transform="translate(-263.72 -339.88)"/><line class="cls-2" y1="18.13" x2="1467.29" y2="18.13"/><line class="cls-2" x1="1324.43" y1="1.5" x2="141.27" y2="1.5"/><line class="cls-2" x1="1324.43" y1="289.88" x2="141.27" y2="289.88"/><line class="cls-2" y1="273.25" x2="1467.29" y2="273.25"/></svg>